HIERARCHY
ROOT Hips
{
  OFFSET 249.573 103.969 311.749
  CHANNELS 6 Xposition Yposition Zposition Zrotation Xrotation Yrotation
  JOINT RightUpLeg
  {
    OFFSET -8.9458 -8.66707 0.101652
    CHANNELS 3 Zrotation Xrotation Yrotation
    JOINT RightLeg
    {
      OFFSET 0 -44.4227 1.3727
      CHANNELS 3 Zrotation Xrotation Yrotation
      JOINT RightFoot
      {
        OFFSET 0.253549 -42.0924 -1.46059
        CHANNELS 3 Zrotation Xrotation Yrotation
        JOINT RightToes
        {
          OFFSET 0.04 -4.41509 8.4991
          CHANNELS 3 Zrotation Xrotation Yrotation
          End Site
          {
            OFFSET -0.08 -0.137448 9.77979
          }
        }
      }
    }
  }
  JOINT Spine
  {
    OFFSET 0 11.8905 0
    CHANNELS 3 Zrotation Xrotation Yrotation
    JOINT Spine1
    {
      OFFSET 0 25.6574 0.127663
      CHANNELS 3 Zrotation Xrotation Yrotation
      JOINT HEad
      {
        OFFSET 0 8.73416 0.011341
        CHANNELS 3 Zrotation Xrotation Yrotation
        End Site
        {
          OFFSET -0.29 12.7742 2.51395
        }
      }
      JOINT LeftShoulder1
      {
        OFFSET 8.99 -0.362252 -0.22
        CHANNELS 3 Zrotation Xrotation Yrotation
        JOINT LeftArm
        {
          OFFSET 10.2827 -0.00338 0.322123
          CHANNELS 3 Zrotation Xrotation Yrotation
          JOINT LeftForeArm
          {
            OFFSET 32.7669 0.099144 -1.42434
            CHANNELS 3 Zrotation Xrotation Yrotation
            JOINT LeftHand
            {
              OFFSET 27.5643 0.085362 1.02216
              CHANNELS 3 Zrotation Xrotation Yrotation
              End Site
              {
                OFFSET 16.7443 -0.6 1.50291
              }
            }
          }
        }
      }
      JOINT RightShoulder
      {
        OFFSET -8.99 -0.362252 -0.22
        CHANNELS 3 Zrotation Xrotation Yrotation
        JOINT RightArm
        {
          OFFSET -10.2827 -0.00338 0.322123
          CHANNELS 3 Zrotation Xrotation Yrotation
          JOINT RightForeArm
          {
            OFFSET -32.8971 0.099144 -1.42434
            CHANNELS 3 Zrotation Xrotation Yrotation
            JOINT RightHand
            {
              OFFSET -27.4921 0.085362 1.02216
              CHANNELS 3 Zrotation Xrotation Yrotation
              End Site
              {
                OFFSET -16.6312 -0.6 1.50291
              }
            }
          }
        }
      }
    }
  }
  JOINT LeftUpLeg
  {
    OFFSET 8.9458 -8.66707 0.101652
    CHANNELS 3 Zrotation Xrotation Yrotation
    JOINT LeftLeg
    {
      OFFSET 0 -44.4227 1.3727
      CHANNELS 3 Zrotation Xrotation Yrotation
      JOINT LeftFoot
      {
        OFFSET -0.253549 -42.0924 -1.46059
        CHANNELS 3 Zrotation Xrotation Yrotation
        JOINT LeftToes
        {
          OFFSET -0.04 -4.41509 8.4991
          CHANNELS 3 Zrotation Xrotation Yrotation
          End Site
          {
            OFFSET 0.08 -0.047448 9.77979
          }
        }
      }
    }
  }
}
MOTION
Frames:	20
Frame Time:	0.0166667
73.153	98.0134	-183.171	-0.428753	1.36075	166.131	-8.63316	5.74849	-4.62233	-3.78279	39.9404	13.3315	4.61042	-9.66173	-12.6503	0.0462048	0.000533964	0.662642	-2.12076	-1.28619	-0.424363	-4.25259	-2.55296	-0.896479	-2.53407	20.067	16.9908	-1.19E-15	0.00E+00	0.00E+00	-62.2397	26.5656	10.2385	-7.06209	17.3152	-66.1736	-3.96403	6.75917	15.9971	-1.19E-15	0.00E+00	0.00E+00	76.922	36.8755	-25.158	19.778	4.37297	49.5517	18.3212	5.90728	-15.3338	7.40982	-38.6038	10.8879	2.80976	33.005	0.606286	-11.6374	-12.8927	-23.0812	1.27E-14	2.54E-14	0.00E+00
72.706	97.398	-184.454	-0.293368	-0.331113	167.381	-8.51283	4.46702	-4.4517	-2.92524	41.2226	11.7821	6.0612	-9.97671	-13.5496	0.0462048	0.000533964	0.662642	-2.12219	-1.26199	-0.632689	-4.2597	-2.49681	-1.31226	-1.72767	18.5524	15.1242	-8.95E-16	0.00E+00	1.59E-15	-61.7334	27.5633	9.32391	-7.29087	15.6114	-67.2905	-2.68121	6.60404	12.6953	-8.95E-16	0.00E+00	1.59E-15	76.1207	34.852	-24.6436	19.4215	5.47823	49.7699	18.3889	6.32228	-15.5319	6.35392	-42.4991	5.3832	0.887365	36.8522	4.09496	-11.8916	-8.88685	-24.2222	1.43E-14	3.34E-14	3.18E-15
72.217	96.2537	-185.594	1.41297	-2.11069	167.211	-7.25797	2.96502	-3.05082	-1.79547	42.7119	9.96887	8.12305	-11.346	-13.4534	0.0462048	0.000533964	0.662642	-1.67585	-1.26735	-0.535946	-3.36471	-2.51563	-1.10927	-0.813116	17.2302	13.7391	5.34E-16	1.49E-16	1.59E-15	-61.0479	28.0174	9.33391	-8.36784	13.7893	-68.7061	-3.94049	7.32055	12.1415	5.34E-16	1.49E-16	1.59E-15	75.9896	34.0852	-24.3558	18.9112	6.26573	50.1888	18.3584	6.71713	-15.6971	8.33485	-44.2555	6.58308	1.82695	37.995	2.06388	-11.881	-5.50942	-24.5005	1.51E-14	3.02E-14	3.18E-15
71.852	95.421	-186.952	2.48254	-1.64698	166.177	-7.41236	3.29237	-1.2378	-0.961056	44.3837	8.97648	10.4366	-12.5409	-13.727	0.0462048	0.000533964	0.662642	-1.49359	-1.00836	-0.204185	-2.99147	-2.00826	-0.434826	-0.459103	17.4177	12.8931	-1.95E-15	-3.23E-16	1.59E-15	-60.6064	27.6678	10.6053	-9.24726	13.7458	-69.8559	-4.30463	7.00563	12.798	-1.95E-15	-3.23E-16	1.59E-15	76.6561	35.0597	-25.256	18.2975	6.18697	50.6144	18.1982	7.15174	-15.7734	9.03662	-42.6986	10.5978	4.57237	38.0952	-3.37737	-11.8834	-4.98169	-23.9434	1.19E-14	2.94E-14	-3.18E-15
71.377	95.082	-188.999	2.48003	-1.75196	164.97	-8.61706	2.63821	0.0625359	-0.507097	46.0866	8.95789	13.4079	-13.0205	-15.1416	0.0462048	0.000533964	0.662642	-1.46006	-0.902402	0.130265	-2.91863	-1.80504	0.237395	-0.718746	17.4913	12.5097	-2.48E-17	-3.98E-16	1.59E-15	-60.1677	26.0017	11.2719	-10.2225	15.0324	-70.1099	-4.08051	6.34302	12.5687	-2.48E-17	-3.98E-16	1.59E-15	76.9502	36.8298	-25.4195	17.5615	5.40178	50.7192	18.058	7.64245	-15.6449	9.13026	-41.7425	13.2355	6.03974	38.8648	-6.11792	-11.8877	-5.632	-23.6101	1.31E-14	3.10E-14	6.36E-15
71.106	94.8911	-191.016	1.91855	-3.77423	164.772	-9.79209	-0.0213244	-0.414494	-0.54315	47.7422	9.94615	16.68	-13.2116	-16.8366	0.0462048	0.000533964	0.662642	-1.40749	-1.21755	0.145806	-2.81284	-2.43553	0.261594	-1.06893	16.839	12.1679	4.47E-16	0.00E+00	0.00E+00	-60.0296	23.8563	11.042	-10.3731	17.1076	-69.658	-3.34453	5.97358	11.2671	4.47E-16	0.00E+00	0.00E+00	76.383	38.1213	-24.4269	16.9142	4.75849	50.4751	17.9781	8.32571	-15.5262	8.85647	-43.25	12.7935	5.49588	39.893	-4.63803	-12.2189	-5.82922	-25.1285	1.15E-14	3.34E-14	0.00E+00
70.704	94.8531	-192.719	1.46735	-5.3505	164.855	-10.788	-2.37818	-1.42604	-1.3943	49.5755	11.9438	18.8658	-12.9672	-17.8302	0.0462048	0.000533964	0.662642	-1.45381	-1.43523	0.0724423	-2.90719	-2.86905	0.108337	-1.0857	16.2293	11.9143	5.96E-16	0.00E+00	3.18E-15	-60.0799	22.4125	10.7902	-10.1524	18.6385	-69.036	-2.47842	5.7823	10.4263	5.96E-16	0.00E+00	3.18E-15	75.9415	38.747	-23.5754	16.1057	4.93654	50.2297	17.8275	9.02636	-15.4661	8.73058	-44.1988	12.3821	4.5954	40.3982	-2.7347	-12.8187	-6.00226	-26.5677	1.39E-14	3.38E-14	1.27E-14
70.487	94.9767	-194.366	1.31328	-6.93378	165.005	-11.276	-4.82011	-2.80291	-3.10844	51.5263	14.6656	20.0634	-12.329	-18.1823	0.0462048	0.000533964	0.662642	-1.50044	-1.6185	-0.00827094	-3.00292	-3.23344	-0.0591244	-0.720208	15.4874	11.608	-1.69E-15	3.98E-16	0.00E+00	-59.9093	21.9825	10.4168	-9.89909	19.0807	-68.6944	-2.33673	5.90541	10.5379	-1.69E-15	3.98E-16	0.00E+00	75.6192	38.7045	-22.8482	15.056	5.83412	50.3316	17.4855	9.57082	-15.4354	8.95316	-44.7984	12.7322	4.06173	40.3403	-1.82147	-13.521	-6.40344	-27.7301	1.59E-14	3.46E-14	6.36E-15
70.288	95.2269	-195.967	1.49124	-8.17679	165.026	-11.464	-7.01347	-4.05956	-5.28753	53.5976	17.8889	21.0028	-11.5975	-18.0087	0.0462048	0.000533964	0.662642	-1.52042	-1.69981	-0.0600784	-3.04465	-3.39463	-0.165521	-0.166994	14.9022	11.3907	1.39E-15	-2.39E-15	3.18E-15	-59.9146	22.5055	10.3638	-9.28504	18.6389	-68.8033	-2.67623	6.1467	11.1422	1.39E-15	-2.39E-15	3.18E-15	75.2024	38.4621	-22.252	14.1859	6.92829	50.8839	16.8024	9.98181	-15.3302	9.39938	-44.8049	13.466	4.09267	39.9987	-2.65126	-14.355	-7.04614	-28.3208	1.43E-14	3.34E-14	3.18E-15
70.148	95.596	-197.566	2.03208	-8.92101	165.06	-11.3794	-8.83188	-4.95745	-7.71541	55.9834	21.3263	22.407	-10.8703	-17.2541	0.0462048	0.000533964	0.662642	-1.46585	-1.68548	-0.087439	-2.93619	-3.36537	-0.218284	0.384539	14.6841	11.1758	7.95E-16	7.95E-16	1.59E-15	-60.0302	23.672	10.5214	-8.57423	18.0091	-68.9255	-2.99982	6.33072	11.7594	7.95E-16	7.95E-16	1.59E-15	74.7966	38.1458	-22.0278	13.6177	7.80827	51.8014	15.7768	10.537	-15.0393	9.93142	-44.2845	13.7374	4.06761	39.8786	-3.25548	-15.0408	-7.98049	-28.3353	1.17E-14	3.30E-14	3.18E-15
69.951	96.0768	-199.104	2.55169	-9.82665	165.232	-11.0669	-11.0718	-5.41712	-10.1629	58.7547	24.3287	24.0059	-10.4709	-16.1522	0.0462048	0.000533964	0.662642	-1.37812	-1.73427	-0.174504	-2.76344	-3.46104	-0.391119	0.832731	14.5422	10.9839	-1.79E-15	0.00E+00	-1.59E-15	-60.0985	24.9136	10.4632	-8.23535	17.3497	-68.63	-3.13593	6.40459	12.0256	-1.79E-15	0.00E+00	-1.59E-15	74.31	37.7385	-21.965	13.1892	8.41472	53.0462	14.3988	11.3987	-14.4675	10.4384	-43.7436	13.719	3.56841	39.3095	-2.38333	-15.516	-8.45038	-29.3691	1.55E-14	3.34E-14	6.36E-15
69.723	96.615	-200.446	2.89654	-10.7155	165.432	-10.7633	-13.6749	-5.34394	-12.4822	61.852	26.7145	25.3627	-9.98092	-14.9483	0.0462048	0.000533964	0.662642	-1.3161	-1.81351	-0.314766	-2.64414	-3.6165	-0.671796	1.1442	14.4926	10.8943	7.95E-16	-7.95E-16	0.00E+00	-60.1938	25.7171	10.2849	-8.37003	16.9139	-67.8174	-3.00944	6.31	11.953	7.95E-16	-7.95E-16	0.00E+00	73.7114	37.0446	-22.0725	12.811	9.07992	54.5387	12.7181	12.2925	-13.6797	10.563	-43.2336	13.5649	3.28892	38.353	-1.52592	-15.78	-8.41706	-30.4323	1.17E-14	3.02E-14	6.36E-15
69.544	97.1204	-201.692	3.29379	-11.199	165.283	-10.4348	-16.3316	-3.9405	-13.6414	65.4475	27.5277	26.2117	-9.0379	-13.8793	0.0462048	0.000533964	0.662642	-1.25384	-1.77546	-0.3604	-2.52066	-3.53978	-0.760301	1.39096	14.4906	10.9138	1.39E-15	7.95E-16	-3.18E-15	-60.1611	25.8167	10.0942	-8.8692	16.9442	-66.6979	-2.6944	5.98454	11.6961	1.39E-15	7.95E-16	-3.18E-15	73.0767	35.921	-22.3137	12.2999	10.0282	56.2078	10.9226	13.0424	-12.7312	10.7653	-42.5731	13.7078	3.45417	37.9323	-1.7851	-15.7797	-8.67651	-30.5534	1.25E-14	3.14E-14	9.54E-15
69.425	97.5941	-202.859	3.70097	-11.6264	165.136	-10.19	-19.2649	-1.76295	-13.0263	69.4284	26.4749	26.5587	-7.59471	-13.2131	0.0462048	0.000533964	0.662642	-1.19177	-1.75128	-0.425034	-2.3982	-3.4905	-0.887212	1.63037	14.5859	10.9982	4.37E-15	0.00E+00	0.00E+00	-60.0156	25.4534	10.0719	-9.47757	17.3108	-65.5526	-2.4977	5.49968	11.4888	4.37E-15	0.00E+00	0.00E+00	72.5096	34.5638	-22.7456	11.5354	11.202	58.068	9.19208	13.5725	-11.7524	11.0021	-41.8324	14.1553	3.7384	37.3935	-2.20769	-15.7994	-8.76498	-31.3981	8.95E-15	3.16E-14	1.27E-14
69.303	98.0459	-203.967	4.08323	-11.9289	165.03	-10.0185	-22.2447	0.153455	-12.8115	73.417	26.0134	26.5693	-5.9611	-12.9471	0.0462048	0.000533964	0.662642	-1.1512	-1.73547	-0.502936	-2.3192	-3.45762	-1.04154	1.90959	14.8278	11.0679	-2.39E-15	0.00E+00	3.18E-15	-59.9118	25.1464	10.2214	-9.92138	17.604	-64.5202	-2.50128	4.88736	11.387	-2.39E-15	0.00E+00	3.18E-15	72.1078	33.2736	-23.3726	10.6065	12.3087	60.1048	7.65229	13.9503	-11.035	11.2662	-40.8676	14.8266	3.96135	36.6443	-2.41971	-15.851	-9.01664	-31.8553	1.01E-14	3.34E-14	-3.18E-15
69.206	98.4625	-205.05	4.3703	-11.9864	164.796	-9.91075	-25.1226	1.62021	-15.1326	77.2814	28.3485	26.4224	-4.36377	-12.892	0.0462048	0.000533964	0.662642	-1.15216	-1.70153	-0.562043	-2.3225	-3.38853	-1.15914	2.19523	15.2175	11.1827	0.00E+00	0.00E+00	0.00E+00	-60.0492	25.1744	10.4523	-10.1336	17.5194	-63.5186	-2.61391	4.3318	11.3267	0.00E+00	0.00E+00	0.00E+00	71.8644	32.2833	-24.1137	9.51176	13.2315	62.2894	6.3609	14.2001	-10.5814	11.4433	-39.6876	15.4533	4.08506	35.9314	-2.48496	-15.8923	-9.35987	-32.0058	1.29E-14	3.22E-14	3.18E-15
69.131	98.8418	-206.088	4.60754	-11.9467	164.499	-9.79762	-27.9448	2.40605	-23.6731	80.7057	37.0406	26.3507	-2.75451	-12.7617	0.0462048	0.000533964	0.662642	-1.15809	-1.67596	-0.629294	-2.33602	-3.33597	-1.29335	2.45362	15.6719	11.3575	1.99E-15	-3.18E-15	0.00E+00	-60.3972	25.4325	10.6142	-10.2773	17.1704	-62.4051	-2.73842	3.91162	11.2766	1.99E-15	-3.18E-15	0.00E+00	71.6523	31.6251	-24.8349	8.0896	14.0279	64.6203	5.29895	14.3006	-10.279	11.5581	-38.4682	15.8324	4.0571	35.3035	-2.37161	-15.9154	-9.67614	-32.3485	1.47E-14	3.38E-14	-3.18E-15
69.065	99.2021	-207.078	4.82676	-11.8257	164.15	-9.78328	-30.65	2.64012	-41.7919	83.1869	55.4972	26.33	-1.04431	-12.5861	0.0462048	0.000533964	0.662642	-1.16138	-1.6505	-0.69907	-2.34427	-3.28357	-1.43252	2.69159	16.1699	11.5585	0.00E+00	0.00E+00	-3.18E-15	-60.7656	25.7115	10.6676	-10.4895	16.8416	-61.1623	-2.78882	3.53636	11.254	0.00E+00	0.00E+00	-3.18E-15	71.4086	31.1344	-25.4767	6.25302	14.7577	67.0371	4.3825	14.2881	-10.0343	11.634	-37.1811	16.2119	4.08507	34.6637	-2.267	-15.9405	-10.1503	-32.2054	1.21E-14	3.18E-14	9.54E-15
69.034	99.5607	-208.033	4.90918	-11.469	163.694	-9.94537	-33.1458	2.684	-71.0441	84.1947	85.1384	26.3397	0.61185	-12.405	0.0462048	0.000533964	0.662642	-1.22204	-1.597	-0.739486	-2.46602	-3.17494	-1.51392	2.94605	16.7225	11.7305	3.18E-15	1.59E-15	-3.18E-15	-61.0943	25.9594	10.6787	-10.8308	16.5726	-59.8284	-2.79959	3.13592	11.3113	3.18E-15	1.59E-15	-3.18E-15	71.1723	30.6736	-26.0976	4.30155	15.3199	69.3968	3.57487	14.2867	-9.82198	11.5377	-35.6616	16.5745	4.03904	33.9827	-2.00067	-15.9736	-10.4582	-32.6272	1.45E-14	3.34E-14	6.36E-15
69.043	99.9223	-208.985	4.98643	-11.0675	163.194	-10.0627	-35.6407	2.52231	-99.5811	83.4303	114.082	26.2426	2.20476	-12.3859	0.0462048	0.000533964	0.662642	-1.29269	-1.54664	-0.757695	-2.60713	-3.07287	-1.5511	3.24794	17.2523	11.8453	1.59E-15	1.59E-15	-3.18E-15	-61.3773	26.2028	10.6619	-11.1517	16.3444	-58.5008	-2.89585	2.76019	11.4774	1.59E-15	1.59E-15	-3.18E-15	71.0031	30.1865	-26.6673	2.5588	15.6721	71.5532	2.83244	14.4541	-9.73871	11.5589	-34.0257	17.0512	3.8375	33.2637	-1.69282	-15.9893	-10.8888	-32.9372	1.53E-14	3.14E-14	-3.18E-15
